<svg width="43" height="43" viewBox="0 0 43 43" fill="none" xmlns="http://www.w3.org/2000/svg">
<path d="M33.5853 5.93228C31.3747 3.43327 28.5224 1.88086 26.153 1.88086C24.3807 1.88086 22.4876 2.94862 20.8297 4.87967C20.2516 5.55365 19.4258 5.93986 18.5555 5.93986C17.6852 5.93986 16.8531 5.55365 16.2813 4.87967C14.6234 2.94862 12.7367 1.88086 10.958 1.88086C8.58221 1.88086 5.73633 3.43327 3.52569 5.93228C1.01013 8.77964 -0.26035 12.2934 0.044566 15.5724C0.419359 19.586 2.51566 26.356 5.25355 32.4142C6.61932 35.4282 8.01049 37.9802 9.28733 39.8052C11.066 42.3421 12.2158 42.8722 12.8701 42.8722C13.1432 42.8722 13.3973 42.7813 13.626 42.6071C14.2867 42.0846 14.9854 40.9184 15.7668 39.0328C16.2432 37.8818 17.3422 37.132 18.5555 37.132C19.7688 37.132 20.8741 37.8818 21.3442 39.0328C22.1192 40.9184 22.818 42.0922 23.485 42.6071C23.7137 42.7813 23.9678 42.8722 24.2409 42.8722C24.8952 42.8722 26.045 42.3421 27.8237 39.8052C29.1005 37.9878 30.4917 35.4282 31.8575 32.4142C34.5954 26.356 36.6916 19.586 37.0664 15.5724C37.3714 12.2858 36.1072 8.77207 33.5853 5.93228ZM34.932 15.3679C34.5826 19.1013 32.5181 25.7275 29.9136 31.4903C28.605 34.3831 27.2837 36.814 26.0831 38.5179C25.3208 39.6008 24.7745 40.1536 24.4442 40.4338C24.1964 40.0627 23.8217 39.3812 23.3198 38.1695C22.5067 36.2006 20.6391 34.9284 18.5555 34.9284C16.4719 34.9284 14.6043 36.2006 13.7912 38.1695C13.2894 39.3812 12.9146 40.0627 12.6668 40.4338C12.3365 40.1536 11.7838 39.6008 11.0279 38.5179C9.82728 36.8064 8.50598 34.3756 7.19738 31.4903C4.59289 25.7275 2.52836 19.1013 2.17898 15.3679C1.93123 12.7023 2.99844 9.80196 5.11379 7.41655C6.90517 5.39462 9.1984 4.08453 10.9644 4.08453C12.0951 4.08453 13.4482 4.90239 14.6805 6.34121C15.6652 7.4847 17.0754 8.14353 18.5619 8.14353C20.0483 8.14353 21.4649 7.4847 22.4432 6.34121C23.6692 4.90996 25.0223 4.08453 26.1593 4.08453C27.919 4.08453 30.2185 5.39462 32.0099 7.41655C34.1253 9.80196 35.1925 12.7023 34.9447 15.3679H34.932Z" fill="#EDB0BF"/>
<path d="M31.9594 0.5C34.0832 0.500041 36.7342 1.89203 38.8607 4.24414V4.24707L38.9867 4.38867C41.421 7.14013 42.6193 10.5199 42.3304 13.6475C41.9874 17.3347 40.1525 23.4629 37.6859 29.1865L37.184 30.3252C36 32.9477 34.8029 35.2106 33.6869 36.9287L33.2133 37.6318C31.45 40.1561 30.4364 40.4844 30.0551 40.4844C29.9028 40.4844 29.7555 40.4357 29.6078 40.3232C29.347 40.1209 29.0455 39.7595 28.7064 39.1904C28.4543 38.7673 28.19 38.2458 27.9135 37.6191L27.6332 36.957C27.0904 35.6238 25.8101 34.7461 24.3929 34.7461C22.9741 34.7461 21.7023 35.6252 21.1537 36.9551C20.7699 37.8847 20.412 38.6236 20.0756 39.1875C19.7391 39.7513 19.4396 40.114 19.1801 40.3223C19.0318 40.4356 18.8837 40.4844 18.7308 40.4844C18.3495 40.4843 17.3358 40.1561 15.5726 37.6318H15.5717C14.3244 35.8421 12.9546 33.3214 11.6019 30.3252C8.88513 24.291 6.82133 17.5804 6.45544 13.6475C6.16663 10.52 7.36536 7.14023 9.80017 4.38086C11.9469 1.94497 14.6553 0.500051 16.8265 0.5C18.3953 0.5 20.1475 1.45111 21.7465 3.31934V3.32031C22.4096 4.10497 23.3771 4.55761 24.3929 4.55762C25.4103 4.55762 26.3697 4.10369 27.0375 3.32227C28.6368 1.45253 30.396 0.5 31.9594 0.5ZM31.9652 1.70312C30.6124 1.7033 29.138 2.66457 27.8842 4.13379V4.13477C27.0031 5.16842 25.7298 5.76074 24.3988 5.76074C23.152 5.76061 21.9604 5.24045 21.0844 4.32227L20.9135 4.13281C19.6528 2.65585 18.1789 1.70331 16.8334 1.70312C15.8381 1.70312 14.7407 2.07045 13.681 2.67676C12.6157 3.28632 11.5563 4.15509 10.6312 5.20312C8.45183 7.67025 7.3236 10.7013 7.58533 13.5283C7.94072 17.3402 10.0224 24.0225 12.6254 29.8037V29.8047C13.9348 32.7026 15.2658 35.1623 16.4857 36.9082V36.9092C17.2581 38.0198 17.8367 38.6068 18.2045 38.9199L18.6332 39.2852L18.9447 38.8164C19.2161 38.4084 19.6041 37.6945 20.1107 36.4668V36.4658C20.8462 34.6783 22.5278 33.5361 24.3929 33.5361C26.258 33.5361 27.9397 34.6783 28.6752 36.4658V36.4668C29.1818 37.6945 29.5698 38.4084 29.8412 38.8164L30.1527 39.2852L30.5814 38.9199C30.9041 38.6452 31.3821 38.1614 32.017 37.3027L32.2992 36.9111C33.5199 35.1721 34.8507 32.711 36.1605 29.8047V29.8037C38.6631 24.2455 40.6828 17.8548 41.1508 13.9824H41.1703L41.2133 13.5283C41.475 10.7013 40.3468 7.67025 38.1674 5.20312C37.2423 4.15504 36.1815 3.28621 35.1156 2.67676C34.0554 2.07063 32.9575 1.70312 31.9652 1.70312Z" fill="#C0E5E8" stroke="#C0E5E8"/>
</svg>
