<svg width="84" height="85" viewBox="0 0 84 85" fill="none" xmlns="http://www.w3.org/2000/svg">
<path d="M65.7815 12.3647C61.4845 7.50728 55.9405 4.48977 51.3349 4.48977C47.8899 4.48977 44.2104 6.56523 40.9877 10.3187C39.8641 11.6287 38.2589 12.3794 36.5673 12.3794C34.8757 12.3794 33.2581 11.6287 32.1469 10.3187C28.9242 6.56523 25.2569 4.48977 21.7996 4.48977C17.1817 4.48977 11.65 7.50728 7.35306 12.3647C2.46345 17.8993 -0.00605518 24.7291 0.586625 31.1027C1.31513 38.9041 5.38981 52.0633 10.7116 63.839C13.3663 69.6974 16.0704 74.6579 18.5522 78.2053C22.0096 83.1363 24.2444 84.1667 25.5162 84.1667C26.0472 84.1667 26.5411 83.99 26.9856 83.6515C28.2697 82.6358 29.628 80.369 31.1467 76.7039C32.0728 74.4665 34.2089 73.0093 36.5673 73.0093C38.9256 73.0093 41.0741 74.4665 41.9878 76.7039C43.4942 80.369 44.8524 82.6506 46.1489 83.6515C46.5934 83.99 47.0873 84.1667 47.6183 84.1667C48.8901 84.1667 51.125 83.1363 54.5823 78.2053C57.0641 74.6726 59.7682 69.6974 62.423 63.839C67.7447 52.0633 71.8194 38.9041 72.5479 31.1027C73.1406 24.7144 70.6834 17.8846 65.7815 12.3647ZM68.3991 30.7053C67.72 37.962 63.7071 50.8416 58.6446 62.0432C56.101 67.6661 53.5327 72.391 51.1991 75.7029C49.7174 77.8078 48.6555 78.8824 48.0134 79.427C47.5319 78.7057 46.8033 77.381 45.8279 75.0258C44.2474 71.1988 40.6172 68.7259 36.5673 68.7259C32.5173 68.7259 28.8871 71.1988 27.3066 75.0258C26.3312 77.381 25.6027 78.7057 25.1211 79.427C24.4791 78.8824 23.4048 77.8078 21.9355 75.7029C19.6018 72.3763 17.0335 67.6513 14.4899 62.0432C9.42744 50.8416 5.4145 37.962 4.73539 30.7053C4.25383 25.524 6.32822 19.8864 10.4399 15.2498C13.9219 11.3196 18.3794 8.77316 21.812 8.77316C24.0098 8.77316 26.6399 10.3629 29.0353 13.1596C30.9491 15.3822 33.6903 16.6628 36.5796 16.6628C39.4689 16.6628 42.2224 15.3822 44.1239 13.1596C46.507 10.3776 49.137 8.77316 51.3472 8.77316C54.7675 8.77316 59.2373 11.3196 62.7193 15.2498C66.831 19.8864 68.9054 25.524 68.4238 30.7053H68.3991Z" fill="#EDB0BF"/>
<path d="M77.0081 8.7055C72.7288 3.84978 67.2075 0.833351 62.6208 0.833351C59.19 0.833351 55.5255 2.90807 52.3161 6.66021C51.1971 7.96978 49.5985 8.72021 47.9138 8.72021C46.2291 8.72021 44.6182 7.96978 43.5115 6.66021C40.3021 2.90807 36.6499 0.833351 33.2068 0.833351C28.6078 0.833351 23.0988 3.84978 18.8195 8.7055C13.9377 14.2381 11.4906 21.0655 12.0808 27.4515C12.8064 35.2501 16.8643 48.4047 22.1642 60.1761C24.8081 66.0324 27.5011 70.9911 29.9727 74.5372C33.4158 79.4665 35.6416 80.4965 36.9081 80.4965C37.4369 80.4965 37.9288 80.32 38.3715 79.9815C39.6503 78.9662 41.003 76.7002 42.5155 73.0364C43.4378 70.7998 45.5651 69.3431 47.9138 69.3431C50.2625 69.3431 52.4021 70.7998 53.3121 73.0364C54.8123 76.7002 56.165 78.981 57.4561 79.9815C57.8988 80.32 58.3907 80.4965 58.9195 80.4965C60.186 80.4965 62.4118 79.4665 65.8549 74.5372C68.3265 71.0058 71.0195 66.0324 73.6634 60.1761C78.9633 48.4047 83.0212 35.2501 83.7467 27.4515C84.337 21.0655 81.8899 14.2381 77.0081 8.72021V8.7055ZM79.615 27.0395C78.9387 34.2937 74.9422 47.1687 69.9005 58.3662C67.3674 63.9871 64.8096 68.7104 62.4855 72.0211C61.0099 74.1253 59.9524 75.1994 59.313 75.7438C58.8334 75.0228 58.1079 73.6985 57.1364 71.3442C55.5624 67.5185 51.9472 65.0465 47.9138 65.0465C43.8804 65.0465 40.2652 67.5185 38.6912 71.3442C37.7197 73.6985 36.9942 75.0228 36.5146 75.7438C35.8752 75.1994 34.8054 74.1253 33.3421 72.0211C31.018 68.6957 28.4602 63.9724 25.9271 58.3662C20.8854 47.1687 16.8889 34.2937 16.2126 27.0395C15.733 21.8601 17.7989 16.2245 21.8937 11.5895C25.3614 7.66078 29.8006 5.11521 33.2191 5.11521C35.4079 5.11521 38.0271 6.70435 40.4127 9.50007C42.3187 11.7219 45.0486 13.0021 47.9261 13.0021C50.8036 13.0021 53.5457 11.7219 55.4395 9.50007C57.8127 6.71907 60.432 5.11521 62.6331 5.11521C66.0393 5.11521 70.4908 7.66078 73.9585 11.5895C78.0533 16.2245 80.1192 21.8601 79.6396 27.0395H79.615Z" fill="#C0E5E8"/>
</svg>
