<svg width="44" height="44" viewBox="0 0 44 44" fill="none" xmlns="http://www.w3.org/2000/svg">
<path d="M33.2516 30.446C33.2368 30.0804 33.0489 29.7469 32.7341 29.5242L28.1064 25.9893L28.0681 25.9614C27.8718 25.8317 27.6477 25.7504 27.4139 25.7239C26.9966 25.6737 26.5789 25.7838 26.2689 26.0277L24.6215 27.3215C24.5514 27.3737 24.336 27.4356 24.2734 27.4312C24.2566 27.4278 22.5776 27.1018 19.8352 23.6078C17.0976 20.1211 17.1702 18.4063 17.1692 18.4062C17.1814 18.3196 17.2915 18.1255 17.3599 18.0696L18.7646 16.9673C19.2596 16.5778 19.4804 15.8598 19.2869 15.2598L17.1457 9.71634C16.9944 9.2779 16.6343 8.97506 16.2006 8.92281C15.8938 8.88585 15.5824 8.97737 15.3232 9.18057L11.4949 12.1788C11.1279 12.4653 10.7771 13.0011 10.6603 13.4524C10.604 13.6681 9.36719 18.8289 15.6783 26.87C21.0363 33.6949 25.7295 34.7404 27.0413 34.8984C27.2008 34.9194 27.3615 34.9304 27.5224 34.9314C27.987 34.9253 28.5901 34.7124 28.955 34.4253L32.7811 31.4223C33.0935 31.1757 33.2653 30.821 33.2516 30.446Z" fill="white"/>
</svg>
